<?xml version="1.0" standalone="no"?>
<!DOCTYPE svg PUBLIC "-//W3C//DTD SVG 20010904//EN"
 "http://www.w3.org/TR/2001/REC-SVG-20010904/DTD/svg10.dtd">
<svg version="1.0" xmlns="http://www.w3.org/2000/svg"
 width="348.000000pt" height="327.000000pt" viewBox="0 0 348.000000 327.000000"
 preserveAspectRatio="xMidYMid meet">
<metadata>
Created by potrace 1.16, written by Peter Selinger 2001-2019
</metadata>
<g transform="translate(0.000000,327.000000) scale(0.100000,-0.100000)"
fill="#000000" stroke="none">
<path d="M138 3161 c-24 -22 -32 -37 -32 -63 0 -43 26 -86 60 -98 14 -6 112
-10 218 -10 l193 0 11 -52 c7 -29 17 -77 23 -105 l11 -53 94 0 c55 0 94 4 94
10 0 5 -15 75 -34 154 -57 241 -63 245 -383 246 l-223 0 -32 -29z"/>
<path d="M641 2733 c5 -21 47 -236 94 -478 98 -503 169 -864 192 -980 l16 -80
-96 -290 c-53 -160 -97 -303 -97 -318 0 -15 7 -41 15 -57 25 -49 51 -60 140
-60 l81 0 -4 -64 c-6 -95 18 -157 87 -227 65 -65 124 -89 216 -89 122 0 219
60 272 168 23 48 28 70 28 135 l0 77 441 0 442 0 4 -88 c3 -72 9 -96 33 -140
50 -92 132 -143 241 -150 103 -7 163 16 235 87 66 66 89 124 89 221 l0 67 48
-8 c26 -5 64 -16 84 -24 45 -18 80 -6 97 32 16 36 13 57 -12 81 -43 40 -113
63 -210 69 -80 4 -102 10 -165 41 -112 55 -209 51 -314 -15 l-38 -23 -534 0
-535 0 -47 30 c-56 35 -139 54 -197 45 -48 -8 -124 -39 -148 -61 -12 -11 -37
-14 -101 -12 l-84 3 98 280 c53 154 97 290 98 303 0 26 -2 26 43 7 32 -13 164
-15 980 -15 l944 0 44 23 c76 40 79 51 171 627 45 283 81 528 80 544 -2 32
-13 48 -53 77 -31 22 16 16 -1049 119 -228 22 -604 58 -835 80 -231 22 -439
43 -461 46 -47 7 -108 -16 -127 -48 -18 -28 -24 -22 -36 42 l-12 60 -83 0 -84
0 9 -37z m579 -234 c80 -6 154 -15 166 -19 19 -7 22 -24 38 -162 9 -84 19
-165 22 -180 l6 -28 -176 0 c-97 0 -176 2 -176 4 0 2 -16 88 -35 192 -19 103
-35 193 -35 200 0 6 10 10 23 8 12 -2 87 -8 167 -15z m534 -54 c76 -8 140 -16
142 -18 2 -2 7 -74 10 -160 l7 -157 -171 0 c-95 0 -172 1 -172 3 0 1 -7 65
-15 142 -8 77 -15 155 -15 173 0 30 2 32 38 32 20 0 99 -7 176 -15z m416 -40
c74 -8 138 -15 143 -15 4 0 7 -63 7 -140 l0 -140 -149 0 -148 0 -7 92 c-10
145 -8 218 7 218 6 0 73 -7 147 -15z m435 -40 c77 -8 143 -15 148 -15 9 0 9
-81 0 -172 l-6 -68 -158 0 -159 0 0 135 c0 122 2 135 18 135 9 0 80 -7 157
-15z m428 -39 c77 -8 140 -16 142 -18 3 -3 -9 -104 -20 -165 l-6 -33 -151 0
c-133 0 -149 2 -144 16 3 9 6 60 6 115 0 88 2 99 18 99 9 0 79 -7 155 -14z
m-1547 -486 c11 -74 18 -138 14 -143 -4 -4 -78 -6 -165 -5 l-159 3 -23 115
c-12 63 -22 127 -22 143 l-1 27 168 -2 167 -3 21 -135z m432 -7 l3 -143 -155
0 -154 0 -5 43 c-4 23 -9 88 -13 145 l-7 103 164 -3 164 -3 3 -142z m402 2 l0
-145 -144 0 -144 0 -7 134 c-4 74 -4 139 0 145 4 7 59 11 151 11 l144 0 0
-145z m421 50 c-1 -49 -4 -114 -7 -142 l-6 -53 -149 0 -148 0 -3 141 c-2 77
-1 143 1 145 3 3 74 3 159 2 l155 -3 -2 -90z m381 90 c3 -4 -11 -104 -42 -282
0 -2 -57 -3 -126 -3 l-126 0 7 138 c4 75 9 140 12 145 5 8 267 10 275 2z
m-1598 -432 c3 -10 8 -45 11 -78 4 -33 9 -68 11 -77 5 -17 -7 -18 -150 -18
-153 0 -156 0 -161 23 -19 85 -25 115 -25 140 l0 27 154 0 c139 0 155 -2 160
-17z m406 -78 l0 -95 -145 0 -145 0 0 28 c0 15 -3 57 -7 95 l-6 67 152 0 151
0 0 -95z m390 0 l0 -95 -140 0 -140 0 0 34 c0 18 -3 61 -6 95 l-7 61 147 0
146 0 0 -95z m400 0 l0 -95 -150 0 -150 0 0 95 0 95 150 0 150 0 0 -95z m340
83 c0 -7 -5 -50 -12 -95 l-11 -83 -114 0 -113 0 0 43 c0 23 3 66 6 95 l7 52
118 0 c89 0 119 -3 119 -12z"/>
</g>
</svg>
